<mxfile host="app.diagrams.net" modified="2021-09-25T23:02:35.514Z" agent="5.0 (X11; Linux x86_64) AppleWebKit/537.36 (KHTML, like Gecko) Chrome/92.0.4515.159 Safari/537.36" etag="iZ36UmSaoxq3rlmIHoAz" version="15.3.2" type="github">
  <diagram id="pKFCxkqFHbL2Sj2lmx0C" name="Page-1">
    <mxGraphModel dx="734" dy="479" grid="1" gridSize="10" guides="1" tooltips="1" connect="1" arrows="1" fold="1" page="1" pageScale="1" pageWidth="827" pageHeight="1169" math="0" shadow="0">
      <root>
        <mxCell id="0" />
        <mxCell id="1" parent="0" />
        <mxCell id="kxslQi2prUPEwXgdvNku-3" style="rounded=0;orthogonalLoop=1;jettySize=auto;html=1;exitX=1;exitY=0.3333333333333333;exitDx=0;exitDy=0;exitPerimeter=0;entryX=0;entryY=0.5;entryDx=0;entryDy=0;" edge="1" parent="1" source="kxslQi2prUPEwXgdvNku-1" target="kxslQi2prUPEwXgdvNku-2">
          <mxGeometry relative="1" as="geometry" />
        </mxCell>
        <mxCell id="kxslQi2prUPEwXgdvNku-4" value="Отправляет" style="edgeLabel;html=1;align=center;verticalAlign=middle;resizable=0;points=[];" vertex="1" connectable="0" parent="kxslQi2prUPEwXgdvNku-3">
          <mxGeometry x="-0.1356" relative="1" as="geometry">
            <mxPoint as="offset" />
          </mxGeometry>
        </mxCell>
        <mxCell id="kxslQi2prUPEwXgdvNku-1" value="Actor" style="shape=umlActor;verticalLabelPosition=bottom;verticalAlign=top;html=1;outlineConnect=0;" vertex="1" parent="1">
          <mxGeometry x="80" y="280" width="30" height="60" as="geometry" />
        </mxCell>
        <mxCell id="kxslQi2prUPEwXgdvNku-8" style="edgeStyle=none;rounded=0;orthogonalLoop=1;jettySize=auto;html=1;entryX=0.25;entryY=1;entryDx=0;entryDy=0;exitX=1;exitY=0;exitDx=0;exitDy=0;" edge="1" parent="1" source="kxslQi2prUPEwXgdvNku-2" target="kxslQi2prUPEwXgdvNku-7">
          <mxGeometry relative="1" as="geometry">
            <mxPoint x="553" y="210" as="sourcePoint" />
          </mxGeometry>
        </mxCell>
        <mxCell id="kxslQi2prUPEwXgdvNku-9" value="Запрашивает остатки" style="edgeLabel;html=1;align=right;verticalAlign=middle;resizable=0;points=[];" vertex="1" connectable="0" parent="kxslQi2prUPEwXgdvNku-8">
          <mxGeometry x="0.1188" y="-2" relative="1" as="geometry">
            <mxPoint x="-1" as="offset" />
          </mxGeometry>
        </mxCell>
        <mxCell id="kxslQi2prUPEwXgdvNku-2" value="Заказ" style="rounded=1;whiteSpace=wrap;html=1;" vertex="1" parent="1">
          <mxGeometry x="320" y="220" width="90" height="20" as="geometry" />
        </mxCell>
        <mxCell id="kxslQi2prUPEwXgdvNku-7" value="Склад" style="rounded=1;whiteSpace=wrap;html=1;" vertex="1" parent="1">
          <mxGeometry x="530" y="50" width="90" height="20" as="geometry" />
        </mxCell>
        <mxCell id="kxslQi2prUPEwXgdvNku-20" style="edgeStyle=none;rounded=0;orthogonalLoop=1;jettySize=auto;html=1;exitX=0.5;exitY=1;exitDx=0;exitDy=0;entryX=0.25;entryY=0;entryDx=0;entryDy=0;" edge="1" parent="1" source="kxslQi2prUPEwXgdvNku-7" target="kxslQi2prUPEwXgdvNku-19">
          <mxGeometry relative="1" as="geometry" />
        </mxCell>
        <mxCell id="kxslQi2prUPEwXgdvNku-21" value="Запрашивает расстояние до складов" style="edgeLabel;html=1;align=left;verticalAlign=middle;resizable=0;points=[];" vertex="1" connectable="0" parent="kxslQi2prUPEwXgdvNku-20">
          <mxGeometry x="-0.3172" y="-1" relative="1" as="geometry">
            <mxPoint as="offset" />
          </mxGeometry>
        </mxCell>
        <mxCell id="kxslQi2prUPEwXgdvNku-29" style="edgeStyle=none;rounded=0;orthogonalLoop=1;jettySize=auto;html=1;exitX=0;exitY=0.5;exitDx=0;exitDy=0;entryX=1;entryY=0.5;entryDx=0;entryDy=0;" edge="1" parent="1" source="kxslQi2prUPEwXgdvNku-14" target="kxslQi2prUPEwXgdvNku-27">
          <mxGeometry relative="1" as="geometry" />
        </mxCell>
        <mxCell id="kxslQi2prUPEwXgdvNku-30" value="Назначает курьера" style="edgeLabel;html=1;align=center;verticalAlign=middle;resizable=0;points=[];" vertex="1" connectable="0" parent="kxslQi2prUPEwXgdvNku-29">
          <mxGeometry x="0.1411" y="1" relative="1" as="geometry">
            <mxPoint as="offset" />
          </mxGeometry>
        </mxCell>
        <mxCell id="kxslQi2prUPEwXgdvNku-14" value="доставка" style="rounded=1;whiteSpace=wrap;html=1;" vertex="1" parent="1">
          <mxGeometry x="840" y="240" width="90" height="40" as="geometry" />
        </mxCell>
        <mxCell id="kxslQi2prUPEwXgdvNku-22" style="edgeStyle=none;rounded=0;orthogonalLoop=1;jettySize=auto;html=1;exitX=0.75;exitY=0;exitDx=0;exitDy=0;entryX=0.5;entryY=0;entryDx=0;entryDy=0;" edge="1" parent="1" source="kxslQi2prUPEwXgdvNku-19" target="kxslQi2prUPEwXgdvNku-14">
          <mxGeometry relative="1" as="geometry" />
        </mxCell>
        <mxCell id="kxslQi2prUPEwXgdvNku-24" value="Формирует заказ на доставку" style="edgeLabel;html=1;align=left;verticalAlign=middle;resizable=0;points=[];" vertex="1" connectable="0" parent="kxslQi2prUPEwXgdvNku-22">
          <mxGeometry x="-0.4156" y="-2" relative="1" as="geometry">
            <mxPoint y="22" as="offset" />
          </mxGeometry>
        </mxCell>
        <mxCell id="kxslQi2prUPEwXgdvNku-19" value="Геокодер" style="rounded=1;whiteSpace=wrap;html=1;" vertex="1" parent="1">
          <mxGeometry x="820" y="110" width="90" height="40" as="geometry" />
        </mxCell>
        <mxCell id="kxslQi2prUPEwXgdvNku-33" style="edgeStyle=none;rounded=0;orthogonalLoop=1;jettySize=auto;html=1;exitX=0;exitY=0.5;exitDx=0;exitDy=0;entryX=1;entryY=0.3333333333333333;entryDx=0;entryDy=0;entryPerimeter=0;" edge="1" parent="1" source="kxslQi2prUPEwXgdvNku-27" target="kxslQi2prUPEwXgdvNku-1">
          <mxGeometry relative="1" as="geometry" />
        </mxCell>
        <mxCell id="kxslQi2prUPEwXgdvNku-34" value="Получает подтверждение или доступное время доставки" style="edgeLabel;html=1;align=center;verticalAlign=middle;resizable=0;points=[];" vertex="1" connectable="0" parent="kxslQi2prUPEwXgdvNku-33">
          <mxGeometry x="0.1261" relative="1" as="geometry">
            <mxPoint as="offset" />
          </mxGeometry>
        </mxCell>
        <mxCell id="kxslQi2prUPEwXgdvNku-27" value="Расписание курьеров" style="rounded=1;whiteSpace=wrap;html=1;" vertex="1" parent="1">
          <mxGeometry x="570" y="300" width="90" height="40" as="geometry" />
        </mxCell>
        <mxCell id="kxslQi2prUPEwXgdvNku-32" style="edgeStyle=none;rounded=0;orthogonalLoop=1;jettySize=auto;html=1;exitX=0.5;exitY=0;exitDx=0;exitDy=0;entryX=0.5;entryY=1;entryDx=0;entryDy=0;" edge="1" parent="1" source="kxslQi2prUPEwXgdvNku-31" target="kxslQi2prUPEwXgdvNku-27">
          <mxGeometry relative="1" as="geometry" />
        </mxCell>
        <mxCell id="kxslQi2prUPEwXgdvNku-31" value="Список курьеров" style="rounded=1;whiteSpace=wrap;html=1;" vertex="1" parent="1">
          <mxGeometry x="570" y="390" width="90" height="40" as="geometry" />
        </mxCell>
      </root>
    </mxGraphModel>
  </diagram>
</mxfile>
